<mxfile host="app.diagrams.net" modified="2024-07-08T03:46:30.361Z" agent="Mozilla/5.0 (Windows NT 10.0; Win64; x64) AppleWebKit/537.36 (KHTML, like Gecko) Chrome/126.0.0.0 Safari/537.36" etag="q8tjwhlGI03m6MzhP9tR" version="24.6.4" type="device">
  <diagram name="Страница — 1" id="v-XH-lxlR1boFbCfx5VG">
    <mxGraphModel dx="1050" dy="565" grid="1" gridSize="10" guides="1" tooltips="1" connect="1" arrows="1" fold="1" page="1" pageScale="1" pageWidth="827" pageHeight="1169" math="0" shadow="0">
      <root>
        <mxCell id="0" />
        <mxCell id="1" parent="0" />
        <mxCell id="XQlC6lfwkidoz2LKeoZZ-14" value="" style="whiteSpace=wrap;html=1;aspect=fixed;" vertex="1" parent="1">
          <mxGeometry x="100" y="20" width="600" height="600" as="geometry" />
        </mxCell>
        <mxCell id="XQlC6lfwkidoz2LKeoZZ-1" value="Веб-сайт" style="shape=cylinder3;whiteSpace=wrap;html=1;boundedLbl=1;backgroundOutline=1;size=15;" vertex="1" parent="1">
          <mxGeometry x="110" y="120" width="60" height="80" as="geometry" />
        </mxCell>
        <mxCell id="XQlC6lfwkidoz2LKeoZZ-2" value="CRM" style="shape=cylinder3;whiteSpace=wrap;html=1;boundedLbl=1;backgroundOutline=1;size=15;" vertex="1" parent="1">
          <mxGeometry x="110" y="240" width="60" height="80" as="geometry" />
        </mxCell>
        <mxCell id="XQlC6lfwkidoz2LKeoZZ-3" value="Extract" style="text;html=1;align=center;verticalAlign=middle;resizable=0;points=[];autosize=1;strokeColor=none;fillColor=none;" vertex="1" parent="1">
          <mxGeometry x="110" y="60" width="60" height="30" as="geometry" />
        </mxCell>
        <mxCell id="XQlC6lfwkidoz2LKeoZZ-4" value="Соц. сети" style="shape=cylinder3;whiteSpace=wrap;html=1;boundedLbl=1;backgroundOutline=1;size=15;" vertex="1" parent="1">
          <mxGeometry x="110" y="370" width="60" height="80" as="geometry" />
        </mxCell>
        <mxCell id="XQlC6lfwkidoz2LKeoZZ-5" value="Рекламные платформы" style="shape=cylinder3;whiteSpace=wrap;html=1;boundedLbl=1;backgroundOutline=1;size=15;" vertex="1" parent="1">
          <mxGeometry x="110" y="505" width="60" height="80" as="geometry" />
        </mxCell>
        <mxCell id="XQlC6lfwkidoz2LKeoZZ-6" value="Transform" style="text;html=1;align=center;verticalAlign=middle;resizable=0;points=[];autosize=1;strokeColor=none;fillColor=none;" vertex="1" parent="1">
          <mxGeometry x="310" y="60" width="80" height="30" as="geometry" />
        </mxCell>
        <mxCell id="XQlC6lfwkidoz2LKeoZZ-7" value="&lt;span style=&quot;font-family: &amp;quot;Source Code Pro&amp;quot;; font-size: medium; text-align: left; background-color: rgb(255, 255, 255);&quot;&gt;Очистка данных&lt;/span&gt;" style="rounded=0;whiteSpace=wrap;html=1;" vertex="1" parent="1">
          <mxGeometry x="294" y="120" width="120" height="60" as="geometry" />
        </mxCell>
        <mxCell id="XQlC6lfwkidoz2LKeoZZ-8" value="&lt;span style=&quot;background-color: rgb(255, 255, 255);&quot;&gt;&lt;br&gt;&lt;span style=&quot;color: rgb(0, 0, 0); font-family: &amp;quot;Source Code Pro&amp;quot;; font-size: medium; font-style: normal; font-variant-ligatures: normal; font-variant-caps: normal; font-weight: 400; letter-spacing: normal; orphans: 2; text-align: left; text-indent: 0px; text-transform: none; widows: 2; word-spacing: 0px; -webkit-text-stroke-width: 0px; white-space: normal; text-decoration-thickness: initial; text-decoration-style: initial; text-decoration-color: initial; float: none; display: inline !important;&quot;&gt;Форматирование данных&lt;/span&gt;&lt;br&gt;&lt;/span&gt;" style="rounded=0;whiteSpace=wrap;html=1;fillColor=none;" vertex="1" parent="1">
          <mxGeometry x="290" y="250" width="120" height="60" as="geometry" />
        </mxCell>
        <mxCell id="XQlC6lfwkidoz2LKeoZZ-9" value="&lt;span style=&quot;font-family: &amp;quot;Source Code Pro&amp;quot;; font-size: medium; text-align: left; background-color: rgb(255, 255, 255);&quot;&gt;Обогащение данных&lt;/span&gt;&lt;span style=&quot;background-color: rgb(255, 255, 255);&quot;&gt;&lt;br&gt;&lt;/span&gt;" style="rounded=0;whiteSpace=wrap;html=1;fillColor=none;" vertex="1" parent="1">
          <mxGeometry x="290" y="380" width="120" height="60" as="geometry" />
        </mxCell>
        <mxCell id="XQlC6lfwkidoz2LKeoZZ-10" value="&lt;span style=&quot;font-family: &amp;quot;Source Code Pro&amp;quot;; font-size: medium; text-align: left; background-color: rgb(255, 255, 255);&quot;&gt;Агрегация данных&lt;/span&gt;&lt;span style=&quot;background-color: rgb(255, 255, 255);&quot;&gt;&lt;br&gt;&lt;/span&gt;" style="rounded=0;whiteSpace=wrap;html=1;fillColor=none;" vertex="1" parent="1">
          <mxGeometry x="290" y="515" width="120" height="60" as="geometry" />
        </mxCell>
        <mxCell id="XQlC6lfwkidoz2LKeoZZ-11" value="Load" style="text;html=1;align=center;verticalAlign=middle;resizable=0;points=[];autosize=1;strokeColor=none;fillColor=none;" vertex="1" parent="1">
          <mxGeometry x="540" y="60" width="50" height="30" as="geometry" />
        </mxCell>
        <mxCell id="XQlC6lfwkidoz2LKeoZZ-12" value="Хранилище данных&lt;div&gt;&lt;br&gt;&lt;/div&gt;" style="shape=cylinder3;whiteSpace=wrap;html=1;boundedLbl=1;backgroundOutline=1;size=15;" vertex="1" parent="1">
          <mxGeometry x="540" y="220" width="120" height="120" as="geometry" />
        </mxCell>
        <mxCell id="XQlC6lfwkidoz2LKeoZZ-15" value="" style="endArrow=none;html=1;rounded=0;" edge="1" parent="1" source="XQlC6lfwkidoz2LKeoZZ-14">
          <mxGeometry width="50" height="50" relative="1" as="geometry">
            <mxPoint x="180" y="70" as="sourcePoint" />
            <mxPoint x="230" y="20" as="targetPoint" />
            <Array as="points">
              <mxPoint x="230" y="620" />
            </Array>
          </mxGeometry>
        </mxCell>
        <mxCell id="XQlC6lfwkidoz2LKeoZZ-16" value="" style="endArrow=none;html=1;rounded=0;entryX=0.634;entryY=0;entryDx=0;entryDy=0;entryPerimeter=0;exitX=0.633;exitY=1;exitDx=0;exitDy=0;exitPerimeter=0;" edge="1" parent="1" source="XQlC6lfwkidoz2LKeoZZ-14" target="XQlC6lfwkidoz2LKeoZZ-14">
          <mxGeometry width="50" height="50" relative="1" as="geometry">
            <mxPoint x="390" y="210" as="sourcePoint" />
            <mxPoint x="440" y="160" as="targetPoint" />
          </mxGeometry>
        </mxCell>
      </root>
    </mxGraphModel>
  </diagram>
</mxfile>
